#!OML:ASF F:\VICON\USERDATA\INSTALL\rory3\rory3.ASF
:FULLY-SPECIFIED
:DEGREES
48
root -0.0196 17.55 -61.9035 1.42067 1.5708 -0.754772
lowerback 18.3548 -1.63195 0.515281
upperback 1.77371 -1.98305 0.783073
thorax -8.362 -0.958804 1.0513
lowerneck -3.86443 2.87782 0.0506676
upperneck -10.9475 3.65586 -2.25754
head -2.76725 1.87121 -0.774555
rclavicle -6.7711e-015 1.94809e-014
rhumerus -45.6657 3.46877 -85.2605
rradius 91.6567
rwrist -4.45118
rhand -35.7932 34.1462
rfingers 7.12502
rthumb -8.91024 4.35435
lclavicle -6.7711e-015 1.94809e-014
lhumerus -35.6902 -18.6426 94.4658
lradius 107.298
lwrist 25.0119
lhand -36.3351 8.58791
lfingers 7.12502
lthumb -9.43312 38.3568
rfemur -24.9073 4.94001 27.9281
rtibia 38.3984
rfoot -9.06546 -2.53174
rtoes 9.2582
lfemur -0.313098 9.69247 -18.0226
ltibia 93.2725
lfoot 21.8172 0.55145
ltoes -7.03698
49
root -0.0195 17.4471 -61.9035 1.22324 1.5708 -1.57519
lowerback 19.1027 -1.4799 0.966346
upperback 2.13681 -1.66268 1.01684
thorax -8.38467 -0.816338 0.981063
lowerneck -4.26623 2.81728 0.157694
upperneck -11.4876 3.55232 -2.40234
head -2.87569 1.81951 -0.839363
rclavicle -2.44878e-014 -1.79403e-014
rhumerus -42.5598 4.41261 -85.9356
rradius 92.3155
rwrist -4.42046
rhand -36.4467 34.2206
rfingers 7.12502
rthumb -9.5408 4.45664
lclavicle -2.44878e-014 -1.79403e-014
lhumerus -36.2803 -17.9919 94.3932
lradius 106.508
lwrist 24.1951
lhand -36.3254 10.3347
lfingers 7.12502
lthumb -9.4238 40.104
rfemur -24.0441 5.98044 29.0942
rtibia 40.6908
rfoot -10.4423 -4.49231
rtoes 9.35007
lfemur -3.16805 11.0549 -15.5841
ltibia 98.1006
lfoot 20.8466 -0.676967
ltoes -5.84241
50
root -0.0195 17.3383 -61.9035 1.25931 1.5708 -2.59188
lowerback 19.5125 -1.22082 1.41791
upperback 2.42159 -1.19942 1.30319
thorax -8.3028 -0.605192 0.918691
lowerneck -4.20551 2.7902 0.242094
upperneck -12.272 3.48822 -2.54271
head -3.15318 1.79163 -0.913644
rclavicle 1.68718e-014 -1.95803e-014
rhumerus -39.5927 5.54546 -86.5864
rradius 92.9616
rwrist -4.37113
rhand -37.2985 34.8339
rfingers 7.12502
rthumb -10.3626 5.10921
lclavicle 1.68718e-014 -1.95803e-014
lhumerus -37.1156 -16.8517 94.2131
lradius 105.944
lwrist 23.135
lhand -36.3982 12.65
lfingers 7.12502
lthumb -9.49399 42.4161
rfemur -23.0259 7.18497 30.4261
rtibia 42.4251
rfoot -11.9684 -5.75882
rtoes 9.76491
lfemur -6.15581 12.7758 -12.925
ltibia 102.57
lfoot 19.5642 -2.13957
ltoes -5.69819
51
root -0.0194 17.2517 -61.9035 1.54822 1.5708 -3.82706
lowerback 19.5773 -1.05979 2.29721
upperback 2.64536 -0.779776 1.61323
thorax -8.10202 -0.426757 0.641664
lowerneck -4.37803 2.83031 0.25048
upperneck -12.7388 3.54049 -2.48753
head -3.28399 1.81683 -0.903096
rclavicle 5.18704e-015 -6.98231e-015
rhumerus -36.6406 6.51762 -87.0776
rradius 93.6293
rwrist -4.20233
rhand -38.0489 35.2466
rfingers 7.12502
rthumb -11.0864 5.55939
lclavicle 5.18704e-015 -6.98231e-015
lhumerus -38.1211 -15.8803 94.2363
lradius 105.351
lwrist 22.8161
lhand -36.535 12.7105
lfingers 7.12502
lthumb -9.62606 42.4706
rfemur -21.7419 8.08463 31.8371
rtibia 43.4876
rfoot -13.7771 -6.75441
rtoes 9.06694
lfemur -9.29724 14.1249 -10.2219
ltibia 106.496
lfoot 18.0724 -3.14295
ltoes -7.14689
52
root -0.0194 17.1796 -61.9035 1.87237 1.5708 -4.64594
lowerback 19.7265 -1.14548 3.07961
upperback 2.70722 -0.707315 1.77844
thorax -8.12202 -0.412879 0.358603
lowerneck -4.14743 2.77816 0.294387
upperneck -13.4694 3.46957 -2.38817
head -3.58504 1.78042 -0.89556
rclavicle -2.02046e-015 3.12775e-015
rhumerus -33.8946 7.19176 -87.4481
rradius 94.2057
rwrist -3.52016
rhand -38.7875 35.7411
rfingers 7.12502
rthumb -11.7988 6.09348
lclavicle -2.02046e-015 3.12775e-015
lhumerus -39.6492 -14.793 94.4149
lradius 104.747
lwrist 22.7303
lhand -36.3264 10.933
lfingers 7.12502
lthumb -9.42476 40.7022
rfemur -20.3861 8.40936 32.6834
rtibia 43.961
rfoot -15.4824 -7.59891
rtoes 9.34244
lfemur -13.1751 14.5736 -8.47296
ltibia 109.969
lfoot 17.5514 -4.19264
ltoes -6.40155
53
root -0.0193 17.1275 -61.9035 2.2727 1.5708 -5.25126
lowerback 19.9934 -1.16282 3.61044
upperback 2.57744 -0.587787 1.8873
thorax -8.41102 -0.373475 0.150438
lowerneck -3.74694 2.59402 0.192715
upperneck -14.0527 3.23888 -2.15496
head -3.87671 1.66625 -0.815612
rclavicle -7.10966e-015 -1.47598e-014
rhumerus -31.45 7.81566 -87.7443
rradius 94.718
rwrist -2.77728
rhand -38.4463 35.9956
rfingers 7.12502
rthumb -11.4697 6.32938
lclavicle -7.10966e-015 -1.47598e-014
lhumerus -41.5111 -13.2618 94.5334
lradius 104.353
lwrist 23.0513
lhand -36.3057 9.62956
lfingers 7.12502
lthumb -9.40477 39.3997
rfemur -18.8284 8.84576 33.348
rtibia 43.6624
rfoot -16.4737 -8.28599
rtoes 8.8632
lfemur -17.6849 15.2017 -7.30771
ltibia 112.95
lfoot 17.358 -5.9145
ltoes -3.14064
54
root -0.0193 17.1478 -61.9035 2.83193 1.5708 -5.247
lowerback 19.4387 -0.86307 3.40666
upperback 2.51866 -0.269556 1.83309
thorax -8.16543 -0.21357 0.115505
lowerneck -3.62599 2.36693 0.208132
upperneck -14.2686 2.93571 -2.10068
head -3.98183 1.51449 -0.799826
rclavicle -4.53353e-014 7.95139e-015
rhumerus -29.0741 8.52816 -87.9471
rradius 95.2515
rwrist -2.39358
rhand -38.2114 36.1977
rfingers 7.12502
rthumb -11.2432 6.51904
lclavicle -4.53353e-014 7.95139e-015
lhumerus -43.084 -11.8707 94.5648
lradius 104.015
lwrist 23.6357
lhand -36.3716 9.46698
lfingers 7.12502
lthumb -9.4684 39.2343
rfemur -17.4459 9.14188 33.5018
rtibia 43.3876
rfoot -16.7034 -9.66331
rtoes 2.00045
lfemur -21.9172 16.1664 -7.3872
ltibia 114.798
lfoot 16.2782 -6.95375
ltoes -4.13536
55
root -0.0192 17.1797 -61.9035 3.15893 1.5708 -5.23827
lowerback 18.7364 -0.699701 3.42888
upperback 2.59085 -0.0906368 1.80281
thorax -7.70056 -0.123005 0.0156916
lowerneck -3.82904 2.06996 0.331111
upperneck -14.1339 2.52736 -2.18702
head -3.89772 1.30838 -0.835452
rclavicle 2.50158e-014 -1.78906e-015
rhumerus -26.7587 9.10607 -87.9477
rradius 95.8742
rwrist -1.84843
rhand -38.298 36.6068
rfingers 7.12502
rthumb -11.3267 6.93269
lclavicle 2.50158e-014 -1.78906e-015
lhumerus -44.4423 -10.789 94.7293
lradius 103.717
lwrist 24.4064
lhand -36.3328 8.82218
lfingers 7.12502
lthumb -9.43093 38.5912
rfemur -14.8877 9.09825 33.4533
rtibia 42.6098
rfoot -18.3202 -9.74366
rtoes 1.5925
lfemur -25.7059 16.3692 -7.79674
ltibia 115.895
lfoot 14.5554 -7.67385
ltoes -8.61428
56
root -0.0192 17.0703 -61.9035 3.19177 1.5708 -5.41149
lowerback 18.7438 -0.763384 3.91771
upperback 2.53384 -0.0690571 1.83434
thorax -7.76651 -0.126992 -0.232311
lowerneck -3.74682 1.78377 0.316895
upperneck -14.143 2.13035 -2.28737
head -3.92143 1.11706 -0.859413
rclavicle 1.09301e-014 4.13348e-014
rhumerus -24.8405 9.52361 -87.7898
rradius 96.7181
rwrist -1.20794
rhand -37.3839 36.3915
rfingers 7.12502
rthumb -10.445 6.67093
lclavicle 1.09301e-014 4.13348e-014
lhumerus -45.947 -9.70637 94.9242
lradius 103.557
lwrist 25.428
lhand -36.1244 10.2423
lfingers 7.12502
lthumb -9.2298 40.0202
rfemur -13.044 8.27271 33.7328
rtibia 42.2301
rfoot -18.9976 -10.1498
rtoes -1.22681
lfemur -29.4001 15.9681 -8.04029
ltibia 117.251
lfoot 13.4479 -8.32965
ltoes -9.22719
57
root -0.0192 17.1194 -61.9035 3.36449 1.5708 -5.62233
lowerback 18.7255 -0.601343 4.26613
upperback 2.34632 0.223313 1.85353
thorax -7.94995 -0.000837306 -0.480876
lowerneck -3.48808 1.48479 0.201343
upperneck -14.0661 1.72914 -2.28335
head -3.94963 0.925714 -0.831701
rclavicle -1.47947e-014 8.19987e-016
rhumerus -23.1989 9.75969 -87.6149
rradius 97.5955
rwrist -0.551124
rhand -36.9793 36.3677
rfingers 7.12502
rthumb -10.0547 6.62787
lclavicle -1.47947e-014 8.19987e-016
lhumerus -47.4837 -8.83429 95.0543
lradius 103.403
lwrist 26.5127
lhand -36.0022 12.6169
lfingers 7.12502
lthumb -9.11193 42.4001
rfemur -10.9925 7.83475 34.0465
rtibia 41.2759
rfoot -18.8913 -10.6915
rtoes -3.56522
lfemur -33.298 15.8666 -8.5187
ltibia 117.296
lfoot 14.403 -9.29394
ltoes -9.59713
58
root -0.0191 17.1404 -61.9035 3.76651 1.5708 -6.20248
lowerback 18.5086 -0.0719132 4.58498
upperback 2.17607 0.987804 1.9822
thorax -7.98352 0.355693 -0.712665
lowerneck -3.77315 1.10931 0.231445
upperneck -13.4058 1.22661 -2.37542
head -3.66685 0.674772 -0.845206
rclavicle -2.14315e-015 -3.47873e-016
rhumerus -21.5818 9.95686 -87.3923
rradius 98.4253
rwrist 0.25875
rhand -38.1834 36.812
rfingers 7.12502
rthumb -11.2162 7.13185
lclavicle -2.14315e-015 -3.47873e-016
lhumerus -48.8743 -8.30121 95.199
lradius 103.196
lwrist 27.272
lhand -36.1747 12.0693
lfingers 7.12502
lthumb -9.27835 41.8452
rfemur -9.11013 8.23717 34.6617
rtibia 40.5057
rfoot -18.8596 -10.6728
rtoes -9.36513
lfemur -35.961 16.5752 -8.18628
ltibia 116.918
lfoot 12.2404 -10.2916
ltoes -9.45574
59
root -0.0191 17.2075 -61.9035 4.16228 1.5708 -6.6195
lowerback 18.3281 0.476381 4.78326
upperback 1.99424 1.75036 2.04418
thorax -8.04469 0.713041 -0.944408
lowerneck -4.02789 0.844775 0.177828
upperneck -12.8851 0.886895 -2.34281
head -3.44127 0.504471 -0.810804
rclavicle -2.01021e-014 -2.33075e-014
rhumerus -20.2997 9.98624 -87.1203
rradius 99.4187
rwrist 0.681962
rhand -38.6069 36.8726
rfingers 7.12502
rthumb -11.6246 7.21506
lclavicle -2.01021e-014 -2.33075e-014
lhumerus -50.1727 -7.90263 95.3381
lradius 103.153
lwrist 28.1561
lhand -37.0874 10.6828
lfingers 7.12502
lthumb -10.159 40.4175
rfemur -6.73576 8.70429 35.0145
rtibia 38.9952
rfoot -18.5931 -10.1221
rtoes -13.9302
lfemur -39.6068 16.7235 -8.57307
ltibia 115.846
lfoot 11.6705 -10.8948
ltoes -11.2928
60
root -0.019 17.2805 -61.9035 4.46172 1.5708 -6.74831
lowerback 18.1649 0.780275 5.17823
upperback 1.73064 2.21409 1.8353
thorax -8.19624 0.912195 -1.50492
lowerneck -3.87555 0.633116 0.307921
upperneck -12.6962 0.627312 -2.13648
head -3.40675 0.363867 -0.760593
rclavicle -1.30546e-014 3.72721e-017
rhumerus -19.4762 9.81095 -87.1589
rradius 100.548
rwrist 0.620207
rhand -37.9067 35.8684
rfingers 7.12502
rthumb -10.9493 6.17396
lclavicle -1.30546e-014 3.72721e-017
lhumerus -51.4966 -7.65259 95.1347
lradius 103.198
lwrist 29.0639
lhand -38.2391 10.7047
lfingers 7.12502
lthumb -11.2698 40.382
rfemur -4.43641 8.89211 35.0227
rtibia 37.4864
rfoot -17.7018 -9.0631
rtoes -15.9842
lfemur -42.2168 16.1302 -9.24401
ltibia 114.269
lfoot 10.9445 -11.2397
ltoes -10.5655
61
root -0.019 17.3724 -61.9035 4.69712 0.1987 -6.56183
lowerback 17.9468 0.85714 5.69184
upperback 1.56704 2.37228 1.38744
thorax -8.20393 0.960498 -2.31269
lowerneck -4.44 0.428402 0.542484
upperneck -12.2049 0.397475 -1.73987
head -3.13548 0.223147 -0.66082
rclavicle -2.90847e-014 -3.07122e-014
rhumerus -18.6682 9.63666 -87.3377
rradius 101.737
rwrist 0.276145
rhand -37.6753 35.2173
rfingers 7.12502
rthumb -10.7261 5.51109
lclavicle -2.90847e-014 -3.07122e-014
lhumerus -52.6803 -7.42953 94.609
lradius 103.382
lwrist 29.3725
lhand -38.6883 11.8125
lfingers 7.12502
lthumb -11.703 41.4656
rfemur -2.12227 8.56023 34.604
rtibia 35.7623
rfoot -16.0936 -7.61494
rtoes -15.9843
lfemur -44.9676 14.5831 -10.5274
ltibia 112.087
lfoot 10.823 -10.9672
ltoes -9.1771
62
root -0.0189 17.4388 -61.7406 4.96778 0.1987 -6.24611
lowerback 17.7791 1.01739 5.99029
upperback 1.42552 2.60062 0.964454
thorax -8.21377 1.04971 -2.98945
lowerneck -5.1572 0.255364 0.537708
upperneck -11.8312 0.210382 -1.2893
head -2.87994 0.114698 -0.506982
rclavicle -1.0138e-014 4.4329e-014
rhumerus -17.8285 9.65914 -87.385
rradius 102.868
rwrist -0.37964
rhand -37.5776 34.8845
rfingers 7.12502
rthumb -10.6318 5.17347
lclavicle -1.0138e-014 4.4329e-014
lhumerus -53.8049 -6.97492 94.1406
lradius 103.708
lwrist 29.2595
lhand -38.7888 12.9839
lfingers 7.12502
lthumb -11.8 42.6315
rfemur 0.0687968 8.22399 33.9049
rtibia 34.0849
rfoot -13.989 -6.16615
rtoes -17.1807
lfemur -46.8546 13.4381 -11.6941
ltibia 109.808
lfoot 9.82081 -10.8406
ltoes -9.56075
